<mxfile host="app.diagrams.net" modified="2024-01-19T08:48:49.156Z" agent="Mozilla/5.0 (X11; Linux x86_64) AppleWebKit/537.36 (KHTML, like Gecko) Chrome/120.0.0.0 Safari/537.36" etag="peaN1yLQSd1NOe6Tq9tc" version="22.1.18" type="device">
  <diagram name="Page-1" id="_aw4AVAyZQ3TUYoL24g8">
    <mxGraphModel dx="1434" dy="10824" grid="0" gridSize="10" guides="1" tooltips="1" connect="1" arrows="1" fold="1" page="1" pageScale="1" pageWidth="10000" pageHeight="10000" math="0" shadow="0">
      <root>
        <mxCell id="0" />
        <mxCell id="1" parent="0" />
        <mxCell id="vehhkd1bJvOzg__U1Yoz-1" value="node" style="rounded=0;whiteSpace=wrap;html=1;" parent="1" vertex="1">
          <mxGeometry x="339" y="-129" width="120" height="60" as="geometry" />
        </mxCell>
        <mxCell id="vehhkd1bJvOzg__U1Yoz-2" value="topic" style="ellipse;whiteSpace=wrap;html=1;" parent="1" vertex="1">
          <mxGeometry x="85" y="-107" width="120" height="80" as="geometry" />
        </mxCell>
        <mxCell id="vehhkd1bJvOzg__U1Yoz-10" style="edgeStyle=orthogonalEdgeStyle;rounded=0;orthogonalLoop=1;jettySize=auto;html=1;exitX=1;exitY=0;exitDx=0;exitDy=0;entryX=0;entryY=0.5;entryDx=0;entryDy=0;" parent="1" source="vehhkd1bJvOzg__U1Yoz-3" target="vehhkd1bJvOzg__U1Yoz-4" edge="1">
          <mxGeometry relative="1" as="geometry">
            <Array as="points">
              <mxPoint x="156" y="291" />
              <mxPoint x="175" y="291" />
              <mxPoint x="175" y="309" />
            </Array>
          </mxGeometry>
        </mxCell>
        <mxCell id="vehhkd1bJvOzg__U1Yoz-3" value="depth_node" style="rounded=0;whiteSpace=wrap;html=1;" parent="1" vertex="1">
          <mxGeometry x="36" y="266" width="120" height="60" as="geometry" />
        </mxCell>
        <mxCell id="vehhkd1bJvOzg__U1Yoz-11" style="edgeStyle=orthogonalEdgeStyle;rounded=0;orthogonalLoop=1;jettySize=auto;html=1;" parent="1" source="vehhkd1bJvOzg__U1Yoz-4" target="vehhkd1bJvOzg__U1Yoz-5" edge="1">
          <mxGeometry relative="1" as="geometry">
            <Array as="points">
              <mxPoint x="263" y="340" />
            </Array>
          </mxGeometry>
        </mxCell>
        <mxCell id="vehhkd1bJvOzg__U1Yoz-4" value="distance_bouteille" style="ellipse;whiteSpace=wrap;html=1;" parent="1" vertex="1">
          <mxGeometry x="195" y="270" width="120" height="80" as="geometry" />
        </mxCell>
        <mxCell id="vehhkd1bJvOzg__U1Yoz-9" style="edgeStyle=orthogonalEdgeStyle;rounded=0;orthogonalLoop=1;jettySize=auto;html=1;exitX=1;exitY=0;exitDx=0;exitDy=0;" parent="1" source="vehhkd1bJvOzg__U1Yoz-5" target="vehhkd1bJvOzg__U1Yoz-6" edge="1">
          <mxGeometry relative="1" as="geometry">
            <Array as="points">
              <mxPoint x="429" y="320" />
              <mxPoint x="429" y="362" />
              <mxPoint x="509" y="362" />
            </Array>
          </mxGeometry>
        </mxCell>
        <mxCell id="vehhkd1bJvOzg__U1Yoz-5" value="placage_bouteille" style="rounded=0;whiteSpace=wrap;html=1;" parent="1" vertex="1">
          <mxGeometry x="332" y="319" width="120" height="60" as="geometry" />
        </mxCell>
        <mxCell id="vehhkd1bJvOzg__U1Yoz-6" value="map" style="ellipse;whiteSpace=wrap;html=1;" parent="1" vertex="1">
          <mxGeometry x="449" y="237" width="120" height="80" as="geometry" />
        </mxCell>
        <mxCell id="vehhkd1bJvOzg__U1Yoz-8" style="edgeStyle=orthogonalEdgeStyle;rounded=0;orthogonalLoop=1;jettySize=auto;html=1;exitX=1;exitY=1;exitDx=0;exitDy=0;" parent="1" source="vehhkd1bJvOzg__U1Yoz-7" target="vehhkd1bJvOzg__U1Yoz-6" edge="1">
          <mxGeometry relative="1" as="geometry">
            <Array as="points">
              <mxPoint x="487" y="187" />
              <mxPoint x="487" y="212" />
              <mxPoint x="509" y="212" />
            </Array>
          </mxGeometry>
        </mxCell>
        <mxCell id="vehhkd1bJvOzg__U1Yoz-7" value="SLAM" style="rounded=0;whiteSpace=wrap;html=1;" parent="1" vertex="1">
          <mxGeometry x="408" y="127" width="120" height="60" as="geometry" />
        </mxCell>
        <mxCell id="vehhkd1bJvOzg__U1Yoz-15" style="edgeStyle=orthogonalEdgeStyle;rounded=0;orthogonalLoop=1;jettySize=auto;html=1;" parent="1" source="vehhkd1bJvOzg__U1Yoz-12" target="vehhkd1bJvOzg__U1Yoz-6" edge="1">
          <mxGeometry relative="1" as="geometry" />
        </mxCell>
        <mxCell id="vehhkd1bJvOzg__U1Yoz-12" value="rviz" style="rounded=0;whiteSpace=wrap;html=1;" parent="1" vertex="1">
          <mxGeometry x="635" y="243" width="120" height="60" as="geometry" />
        </mxCell>
        <mxCell id="vehhkd1bJvOzg__U1Yoz-14" style="edgeStyle=orthogonalEdgeStyle;rounded=0;orthogonalLoop=1;jettySize=auto;html=1;exitX=0.5;exitY=0;exitDx=0;exitDy=0;" parent="1" source="vehhkd1bJvOzg__U1Yoz-13" target="vehhkd1bJvOzg__U1Yoz-5" edge="1">
          <mxGeometry relative="1" as="geometry" />
        </mxCell>
        <mxCell id="vehhkd1bJvOzg__U1Yoz-13" value="TF" style="ellipse;whiteSpace=wrap;html=1;" parent="1" vertex="1">
          <mxGeometry x="302" y="425" width="120" height="80" as="geometry" />
        </mxCell>
        <mxCell id="vehhkd1bJvOzg__U1Yoz-16" value="coords_img_bouteille" style="ellipse;whiteSpace=wrap;html=1;" parent="1" vertex="1">
          <mxGeometry x="36" y="138" width="120" height="80" as="geometry" />
        </mxCell>
        <mxCell id="vehhkd1bJvOzg__U1Yoz-18" style="edgeStyle=orthogonalEdgeStyle;rounded=0;orthogonalLoop=1;jettySize=auto;html=1;" parent="1" source="vehhkd1bJvOzg__U1Yoz-17" target="vehhkd1bJvOzg__U1Yoz-16" edge="1">
          <mxGeometry relative="1" as="geometry" />
        </mxCell>
        <mxCell id="vehhkd1bJvOzg__U1Yoz-17" value="seuillage_node" style="rounded=0;whiteSpace=wrap;html=1;" parent="1" vertex="1">
          <mxGeometry x="36" y="38" width="120" height="60" as="geometry" />
        </mxCell>
        <mxCell id="vehhkd1bJvOzg__U1Yoz-19" style="edgeStyle=orthogonalEdgeStyle;rounded=0;orthogonalLoop=1;jettySize=auto;html=1;" parent="1" source="vehhkd1bJvOzg__U1Yoz-16" target="vehhkd1bJvOzg__U1Yoz-3" edge="1">
          <mxGeometry relative="1" as="geometry" />
        </mxCell>
        <mxCell id="vehhkd1bJvOzg__U1Yoz-22" style="edgeStyle=orthogonalEdgeStyle;rounded=0;orthogonalLoop=1;jettySize=auto;html=1;" parent="1" source="vehhkd1bJvOzg__U1Yoz-21" target="vehhkd1bJvOzg__U1Yoz-3" edge="1">
          <mxGeometry relative="1" as="geometry" />
        </mxCell>
        <mxCell id="vehhkd1bJvOzg__U1Yoz-21" value="image_depth" style="ellipse;whiteSpace=wrap;html=1;" parent="1" vertex="1">
          <mxGeometry x="36" y="385" width="120" height="80" as="geometry" />
        </mxCell>
        <mxCell id="J1WuSYv6M6aPYeHkBaQL-12" style="edgeStyle=orthogonalEdgeStyle;rounded=0;orthogonalLoop=1;jettySize=auto;html=1;fillColor=#d5e8d4;strokeColor=#82b366;" parent="1" source="J1WuSYv6M6aPYeHkBaQL-2" target="J1WuSYv6M6aPYeHkBaQL-4" edge="1">
          <mxGeometry relative="1" as="geometry">
            <Array as="points">
              <mxPoint x="203" y="739" />
              <mxPoint x="203" y="739" />
            </Array>
          </mxGeometry>
        </mxCell>
        <mxCell id="J1WuSYv6M6aPYeHkBaQL-2" value="slam" style="rounded=0;whiteSpace=wrap;html=1;fillColor=#d5e8d4;strokeColor=#82b366;" parent="1" vertex="1">
          <mxGeometry x="161" y="643" width="120" height="60" as="geometry" />
        </mxCell>
        <mxCell id="J1WuSYv6M6aPYeHkBaQL-16" style="edgeStyle=orthogonalEdgeStyle;rounded=0;orthogonalLoop=1;jettySize=auto;html=1;fillColor=#d5e8d4;strokeColor=#82b366;" parent="1" source="J1WuSYv6M6aPYeHkBaQL-3" target="J1WuSYv6M6aPYeHkBaQL-6" edge="1">
          <mxGeometry relative="1" as="geometry" />
        </mxCell>
        <mxCell id="J1WuSYv6M6aPYeHkBaQL-3" value="navigation" style="rounded=0;whiteSpace=wrap;html=1;" parent="1" vertex="1">
          <mxGeometry x="420" y="848" width="120" height="60" as="geometry" />
        </mxCell>
        <mxCell id="J1WuSYv6M6aPYeHkBaQL-4" value="map" style="ellipse;whiteSpace=wrap;html=1;fillColor=#d5e8d4;strokeColor=#82b366;" parent="1" vertex="1">
          <mxGeometry x="137" y="767" width="120" height="80" as="geometry" />
        </mxCell>
        <mxCell id="J1WuSYv6M6aPYeHkBaQL-6" value="cmdvel" style="ellipse;whiteSpace=wrap;html=1;fillColor=#d5e8d4;strokeColor=#82b366;" parent="1" vertex="1">
          <mxGeometry x="604" y="838" width="120" height="80" as="geometry" />
        </mxCell>
        <mxCell id="J1WuSYv6M6aPYeHkBaQL-90" style="edgeStyle=orthogonalEdgeStyle;rounded=0;orthogonalLoop=1;jettySize=auto;html=1;fillColor=#d5e8d4;strokeColor=#82b366;" parent="1" source="J1WuSYv6M6aPYeHkBaQL-7" target="J1WuSYv6M6aPYeHkBaQL-20" edge="1">
          <mxGeometry relative="1" as="geometry">
            <Array as="points">
              <mxPoint x="550" y="1216" />
            </Array>
          </mxGeometry>
        </mxCell>
        <mxCell id="J1WuSYv6M6aPYeHkBaQL-7" value="&lt;div data-darkreader-inline-bgcolor=&quot;&quot; data-darkreader-inline-color=&quot;&quot; style=&quot;color: rgb(204, 204, 204); background-color: rgb(31, 31, 31); font-family: &amp;quot;Droid Sans Mono&amp;quot;, &amp;quot;monospace&amp;quot;, monospace; font-size: 14px; line-height: 19px; --darkreader-inline-color: #e6e0d8; --darkreader-inline-bgcolor: #1a1d1e;&quot;&gt;coords_img_bouteille&lt;/div&gt;" style="ellipse;whiteSpace=wrap;html=1;fillColor=#d5e8d4;strokeColor=#82b366;" parent="1" vertex="1">
          <mxGeometry x="620" y="1192" width="120" height="80" as="geometry" />
        </mxCell>
        <mxCell id="J1WuSYv6M6aPYeHkBaQL-23" style="edgeStyle=orthogonalEdgeStyle;rounded=0;orthogonalLoop=1;jettySize=auto;html=1;fillColor=#d5e8d4;strokeColor=#82b366;" parent="1" source="J1WuSYv6M6aPYeHkBaQL-18" target="J1WuSYv6M6aPYeHkBaQL-7" edge="1">
          <mxGeometry relative="1" as="geometry" />
        </mxCell>
        <mxCell id="J1WuSYv6M6aPYeHkBaQL-18" value="seuillage_node" style="rounded=0;whiteSpace=wrap;html=1;fillColor=#d5e8d4;strokeColor=#82b366;" parent="1" vertex="1">
          <mxGeometry x="899" y="1202" width="120" height="60" as="geometry" />
        </mxCell>
        <mxCell id="J1WuSYv6M6aPYeHkBaQL-22" style="edgeStyle=orthogonalEdgeStyle;rounded=0;orthogonalLoop=1;jettySize=auto;html=1;fillColor=#d5e8d4;strokeColor=#82b366;" parent="1" source="J1WuSYv6M6aPYeHkBaQL-19" target="J1WuSYv6M6aPYeHkBaQL-18" edge="1">
          <mxGeometry relative="1" as="geometry" />
        </mxCell>
        <mxCell id="J1WuSYv6M6aPYeHkBaQL-19" value="images" style="ellipse;whiteSpace=wrap;html=1;fillColor=#d5e8d4;strokeColor=#82b366;" parent="1" vertex="1">
          <mxGeometry x="728" y="1036" width="120" height="80" as="geometry" />
        </mxCell>
        <mxCell id="J1WuSYv6M6aPYeHkBaQL-21" style="edgeStyle=orthogonalEdgeStyle;rounded=0;orthogonalLoop=1;jettySize=auto;html=1;fillColor=#d5e8d4;strokeColor=#82b366;" parent="1" source="J1WuSYv6M6aPYeHkBaQL-20" target="J1WuSYv6M6aPYeHkBaQL-19" edge="1">
          <mxGeometry relative="1" as="geometry">
            <Array as="points">
              <mxPoint x="653" y="1018" />
              <mxPoint x="653" y="1083" />
            </Array>
          </mxGeometry>
        </mxCell>
        <mxCell id="J1WuSYv6M6aPYeHkBaQL-93" style="edgeStyle=orthogonalEdgeStyle;rounded=0;orthogonalLoop=1;jettySize=auto;html=1;fillColor=#d5e8d4;strokeColor=#82b366;" parent="1" source="oQUORiZ7VCNlnRletKll-1" target="J1WuSYv6M6aPYeHkBaQL-92" edge="1">
          <mxGeometry relative="1" as="geometry">
            <Array as="points">
              <mxPoint x="197" y="1232" />
            </Array>
          </mxGeometry>
        </mxCell>
        <mxCell id="J1WuSYv6M6aPYeHkBaQL-20" value="camera" style="rounded=0;whiteSpace=wrap;html=1;fillColor=#d5e8d4;strokeColor=#82b366;" parent="1" vertex="1">
          <mxGeometry x="481.5" y="992" width="120" height="60" as="geometry" />
        </mxCell>
        <mxCell id="J1WuSYv6M6aPYeHkBaQL-26" style="edgeStyle=orthogonalEdgeStyle;rounded=0;orthogonalLoop=1;jettySize=auto;html=1;fillColor=#d5e8d4;strokeColor=#82b366;" parent="1" source="J1WuSYv6M6aPYeHkBaQL-24" target="J1WuSYv6M6aPYeHkBaQL-25" edge="1">
          <mxGeometry relative="1" as="geometry" />
        </mxCell>
        <mxCell id="J1WuSYv6M6aPYeHkBaQL-24" value="laser" style="rounded=0;whiteSpace=wrap;html=1;fillColor=#d5e8d4;strokeColor=#82b366;" parent="1" vertex="1">
          <mxGeometry x="425" y="525" width="120" height="60" as="geometry" />
        </mxCell>
        <mxCell id="J1WuSYv6M6aPYeHkBaQL-27" style="edgeStyle=orthogonalEdgeStyle;rounded=0;orthogonalLoop=1;jettySize=auto;html=1;fillColor=#d5e8d4;strokeColor=#82b366;" parent="1" source="J1WuSYv6M6aPYeHkBaQL-25" target="J1WuSYv6M6aPYeHkBaQL-2" edge="1">
          <mxGeometry relative="1" as="geometry" />
        </mxCell>
        <mxCell id="J1WuSYv6M6aPYeHkBaQL-29" style="edgeStyle=orthogonalEdgeStyle;rounded=0;orthogonalLoop=1;jettySize=auto;html=1;fillColor=#d5e8d4;strokeColor=#82b366;" parent="1" source="J1WuSYv6M6aPYeHkBaQL-25" target="J1WuSYv6M6aPYeHkBaQL-3" edge="1">
          <mxGeometry relative="1" as="geometry" />
        </mxCell>
        <mxCell id="J1WuSYv6M6aPYeHkBaQL-25" value="scan" style="ellipse;whiteSpace=wrap;html=1;fillColor=#d5e8d4;strokeColor=#82b366;" parent="1" vertex="1">
          <mxGeometry x="417" y="633" width="120" height="80" as="geometry" />
        </mxCell>
        <mxCell id="J1WuSYv6M6aPYeHkBaQL-31" value="" style="swimlane;startSize=0;fillColor=none;" parent="1" vertex="1">
          <mxGeometry x="438" y="1345" width="1052" height="730" as="geometry" />
        </mxCell>
        <mxCell id="J1WuSYv6M6aPYeHkBaQL-44" value="" style="group;rotation=0;" parent="J1WuSYv6M6aPYeHkBaQL-31" vertex="1" connectable="0">
          <mxGeometry x="112.99778926203382" y="274.0018871596711" width="824.0022107379662" height="387.40378551507104" as="geometry" />
        </mxCell>
        <mxCell id="J1WuSYv6M6aPYeHkBaQL-35" value="" style="ellipse;whiteSpace=wrap;html=1;aspect=fixed;fillColor=#d5e8d4;strokeColor=#82b366;" parent="J1WuSYv6M6aPYeHkBaQL-44" vertex="1">
          <mxGeometry x="765.9300000000001" y="219.4099999999998" width="32.59" height="32.59" as="geometry" />
        </mxCell>
        <mxCell id="J1WuSYv6M6aPYeHkBaQL-40" value="" style="group;rotation=15;" parent="J1WuSYv6M6aPYeHkBaQL-44" vertex="1" connectable="0">
          <mxGeometry x="9" y="117" width="815.0022107379662" height="219.59" as="geometry" />
        </mxCell>
        <mxCell id="J1WuSYv6M6aPYeHkBaQL-38" value="" style="group;rotation=20;" parent="J1WuSYv6M6aPYeHkBaQL-40" vertex="1" connectable="0">
          <mxGeometry x="7" y="-99" width="112.00221073796615" height="81" as="geometry" />
        </mxCell>
        <mxCell id="J1WuSYv6M6aPYeHkBaQL-36" value="" style="ellipse;whiteSpace=wrap;html=1;aspect=fixed;fillColor=#f8cecc;strokeColor=#b85450;rotation=20;" parent="J1WuSYv6M6aPYeHkBaQL-38" vertex="1">
          <mxGeometry y="-1" width="81" height="81" as="geometry" />
        </mxCell>
        <mxCell id="J1WuSYv6M6aPYeHkBaQL-72" value="" style="group;rotation=30;" parent="J1WuSYv6M6aPYeHkBaQL-38" vertex="1" connectable="0">
          <mxGeometry x="24.002210737966152" y="14.498112840328758" width="44" height="50" as="geometry" />
        </mxCell>
        <mxCell id="J1WuSYv6M6aPYeHkBaQL-83" value="" style="group" parent="J1WuSYv6M6aPYeHkBaQL-72" vertex="1" connectable="0">
          <mxGeometry x="-8" y="-8" width="39" height="58" as="geometry" />
        </mxCell>
        <mxCell id="J1WuSYv6M6aPYeHkBaQL-73" value="" style="endArrow=classic;html=1;rounded=0;fillColor=#dae8fc;strokeColor=#6c8ebf;" parent="J1WuSYv6M6aPYeHkBaQL-83" edge="1">
          <mxGeometry width="50" height="50" relative="1" as="geometry">
            <mxPoint y="37" as="sourcePoint" />
            <mxPoint x="22" as="targetPoint" />
          </mxGeometry>
        </mxCell>
        <mxCell id="J1WuSYv6M6aPYeHkBaQL-74" value="" style="endArrow=classic;html=1;rounded=0;fillColor=#f8cecc;strokeColor=#b85450;" parent="J1WuSYv6M6aPYeHkBaQL-83" edge="1">
          <mxGeometry width="50" height="50" relative="1" as="geometry">
            <mxPoint x="1" y="38" as="sourcePoint" />
            <mxPoint x="39" y="58" as="targetPoint" />
          </mxGeometry>
        </mxCell>
        <mxCell id="J1WuSYv6M6aPYeHkBaQL-75" value="" style="endArrow=classic;html=1;rounded=0;fillColor=#d5e8d4;strokeColor=#82b366;" parent="J1WuSYv6M6aPYeHkBaQL-83" edge="1">
          <mxGeometry width="50" height="50" relative="1" as="geometry">
            <mxPoint x="2" y="37" as="sourcePoint" />
            <mxPoint x="21" y="26" as="targetPoint" />
          </mxGeometry>
        </mxCell>
        <mxCell id="J1WuSYv6M6aPYeHkBaQL-81" value="base_link" style="edgeLabel;html=1;align=center;verticalAlign=middle;resizable=0;points=[];" parent="J1WuSYv6M6aPYeHkBaQL-75" vertex="1" connectable="0">
          <mxGeometry x="0.508" relative="1" as="geometry">
            <mxPoint y="-12" as="offset" />
          </mxGeometry>
        </mxCell>
        <mxCell id="J1WuSYv6M6aPYeHkBaQL-85" value="" style="group" parent="J1WuSYv6M6aPYeHkBaQL-40" vertex="1" connectable="0">
          <mxGeometry x="771.0022107379662" y="77.99811284032876" width="44" height="45" as="geometry" />
        </mxCell>
        <mxCell id="J1WuSYv6M6aPYeHkBaQL-86" value="" style="endArrow=classic;html=1;rounded=0;fillColor=#dae8fc;strokeColor=#6c8ebf;" parent="J1WuSYv6M6aPYeHkBaQL-85" edge="1">
          <mxGeometry width="50" height="50" relative="1" as="geometry">
            <mxPoint y="45" as="sourcePoint" />
            <mxPoint as="targetPoint" />
          </mxGeometry>
        </mxCell>
        <mxCell id="J1WuSYv6M6aPYeHkBaQL-87" value="" style="endArrow=classic;html=1;rounded=0;fillColor=#f8cecc;strokeColor=#b85450;" parent="J1WuSYv6M6aPYeHkBaQL-85" edge="1">
          <mxGeometry width="50" height="50" relative="1" as="geometry">
            <mxPoint x="1" y="45" as="sourcePoint" />
            <mxPoint x="44" y="43.95348837209302" as="targetPoint" />
          </mxGeometry>
        </mxCell>
        <mxCell id="J1WuSYv6M6aPYeHkBaQL-88" value="la &#39;teille" style="edgeLabel;html=1;align=center;verticalAlign=middle;resizable=0;points=[];" parent="J1WuSYv6M6aPYeHkBaQL-87" vertex="1" connectable="0">
          <mxGeometry x="-0.0827" y="2" relative="1" as="geometry">
            <mxPoint x="-2" y="14" as="offset" />
          </mxGeometry>
        </mxCell>
        <mxCell id="J1WuSYv6M6aPYeHkBaQL-89" value="" style="endArrow=classic;html=1;rounded=0;fillColor=#d5e8d4;strokeColor=#82b366;" parent="J1WuSYv6M6aPYeHkBaQL-85" edge="1">
          <mxGeometry width="50" height="50" relative="1" as="geometry">
            <mxPoint x="1" y="43.95348837209302" as="sourcePoint" />
            <mxPoint x="13" y="24.06976744186046" as="targetPoint" />
          </mxGeometry>
        </mxCell>
        <mxCell id="J1WuSYv6M6aPYeHkBaQL-42" value="" style="triangle;whiteSpace=wrap;html=1;rotation=-163;fillColor=none;" parent="J1WuSYv6M6aPYeHkBaQL-44" vertex="1">
          <mxGeometry x="69" y="102" width="717" height="150" as="geometry" />
        </mxCell>
        <mxCell id="J1WuSYv6M6aPYeHkBaQL-50" style="rounded=0;orthogonalLoop=1;jettySize=auto;html=1;exitX=0;exitY=0.5;exitDx=0;exitDy=0;entryX=1;entryY=0.5;entryDx=0;entryDy=0;shape=link;" parent="J1WuSYv6M6aPYeHkBaQL-44" source="J1WuSYv6M6aPYeHkBaQL-42" target="J1WuSYv6M6aPYeHkBaQL-42" edge="1">
          <mxGeometry relative="1" as="geometry" />
        </mxCell>
        <mxCell id="J1WuSYv6M6aPYeHkBaQL-32" value="" style="rounded=0;whiteSpace=wrap;html=1;" parent="J1WuSYv6M6aPYeHkBaQL-31" vertex="1">
          <mxGeometry x="221" y="50" width="120" height="27" as="geometry" />
        </mxCell>
        <mxCell id="J1WuSYv6M6aPYeHkBaQL-33" value="" style="rounded=0;whiteSpace=wrap;html=1;" parent="J1WuSYv6M6aPYeHkBaQL-31" vertex="1">
          <mxGeometry x="441" y="62" width="120" height="27" as="geometry" />
        </mxCell>
        <mxCell id="J1WuSYv6M6aPYeHkBaQL-34" value="" style="rounded=0;whiteSpace=wrap;html=1;rotation=-87;" parent="J1WuSYv6M6aPYeHkBaQL-31" vertex="1">
          <mxGeometry x="813" y="343" width="120" height="27" as="geometry" />
        </mxCell>
        <mxCell id="J1WuSYv6M6aPYeHkBaQL-55" value="" style="endArrow=classic;html=1;rounded=0;fillColor=#dae8fc;strokeColor=#6c8ebf;" parent="J1WuSYv6M6aPYeHkBaQL-31" edge="1">
          <mxGeometry width="50" height="50" relative="1" as="geometry">
            <mxPoint x="45" y="55" as="sourcePoint" />
            <mxPoint x="45" y="12" as="targetPoint" />
          </mxGeometry>
        </mxCell>
        <mxCell id="J1WuSYv6M6aPYeHkBaQL-56" value="" style="endArrow=classic;html=1;rounded=0;fillColor=#f8cecc;strokeColor=#b85450;" parent="J1WuSYv6M6aPYeHkBaQL-31" edge="1">
          <mxGeometry width="50" height="50" relative="1" as="geometry">
            <mxPoint x="46" y="55" as="sourcePoint" />
            <mxPoint x="89" y="54" as="targetPoint" />
          </mxGeometry>
        </mxCell>
        <mxCell id="J1WuSYv6M6aPYeHkBaQL-57" value="" style="endArrow=classic;html=1;rounded=0;fillColor=#d5e8d4;strokeColor=#82b366;" parent="J1WuSYv6M6aPYeHkBaQL-31" edge="1">
          <mxGeometry width="50" height="50" relative="1" as="geometry">
            <mxPoint x="46" y="54" as="sourcePoint" />
            <mxPoint x="58" y="35" as="targetPoint" />
          </mxGeometry>
        </mxCell>
        <mxCell id="J1WuSYv6M6aPYeHkBaQL-82" value="map" style="text;html=1;align=center;verticalAlign=middle;resizable=0;points=[];autosize=1;strokeColor=none;fillColor=none;" parent="1" vertex="1">
          <mxGeometry x="521" y="1361" width="41" height="26" as="geometry" />
        </mxCell>
        <mxCell id="J1WuSYv6M6aPYeHkBaQL-103" style="edgeStyle=orthogonalEdgeStyle;rounded=0;orthogonalLoop=1;jettySize=auto;html=1;fillColor=#d5e8d4;strokeColor=#82b366;" parent="1" source="J1WuSYv6M6aPYeHkBaQL-92" target="J1WuSYv6M6aPYeHkBaQL-101" edge="1">
          <mxGeometry relative="1" as="geometry" />
        </mxCell>
        <mxCell id="J1WuSYv6M6aPYeHkBaQL-92" value="&lt;div data-darkreader-inline-bgcolor=&quot;&quot; data-darkreader-inline-color=&quot;&quot; style=&quot;color: rgb(204, 204, 204); background-color: rgb(31, 31, 31); font-family: Consolas, &amp;quot;Courier New&amp;quot;, monospace; font-size: 14px; line-height: 19px; --darkreader-inline-color: #e6e0d8; --darkreader-inline-bgcolor: #1a1d1e;&quot;&gt;marker_bouteille&lt;/div&gt;" style="ellipse;whiteSpace=wrap;html=1;fillColor=#e1d5e7;strokeColor=#9673a6;" parent="1" vertex="1">
          <mxGeometry x="38" y="1192" width="120" height="80" as="geometry" />
        </mxCell>
        <mxCell id="Rxi_Dcvzvv8wK8cmiCf9-2" style="edgeStyle=orthogonalEdgeStyle;rounded=0;orthogonalLoop=1;jettySize=auto;html=1;" edge="1" parent="1" source="J1WuSYv6M6aPYeHkBaQL-101" target="Rxi_Dcvzvv8wK8cmiCf9-1">
          <mxGeometry relative="1" as="geometry" />
        </mxCell>
        <mxCell id="J1WuSYv6M6aPYeHkBaQL-101" value="marker_Array_node" style="rounded=0;whiteSpace=wrap;html=1;fillColor=#e1d5e7;strokeColor=#9673a6;" parent="1" vertex="1">
          <mxGeometry x="38" y="1064" width="120" height="60" as="geometry" />
        </mxCell>
        <mxCell id="oQUORiZ7VCNlnRletKll-1" value="marker_node" style="rounded=0;whiteSpace=wrap;html=1;fillColor=#e1d5e7;strokeColor=#9673a6;" parent="1" vertex="1">
          <mxGeometry x="212" y="1202" width="120" height="60" as="geometry" />
        </mxCell>
        <mxCell id="oQUORiZ7VCNlnRletKll-4" value="" style="edgeStyle=orthogonalEdgeStyle;rounded=0;orthogonalLoop=1;jettySize=auto;html=1;fillColor=#d5e8d4;strokeColor=#82b366;" parent="1" source="J1WuSYv6M6aPYeHkBaQL-20" target="oQUORiZ7VCNlnRletKll-3" edge="1">
          <mxGeometry relative="1" as="geometry">
            <mxPoint x="482" y="1022" as="sourcePoint" />
            <mxPoint x="364" y="1236" as="targetPoint" />
            <Array as="points" />
          </mxGeometry>
        </mxCell>
        <mxCell id="oQUORiZ7VCNlnRletKll-3" value="&lt;div style=&quot;color: rgb(204, 204, 204); background-color: rgb(31, 31, 31); font-family: Consolas, &amp;quot;Courier New&amp;quot;, monospace; font-size: 14px; line-height: 19px;&quot;&gt;&lt;div style=&quot;line-height: 19px;&quot;&gt;point_bouteille&lt;/div&gt;&lt;/div&gt;" style="ellipse;whiteSpace=wrap;html=1;fillColor=#e1d5e7;strokeColor=#9673a6;" parent="1" vertex="1">
          <mxGeometry x="335" y="1062" width="120" height="80" as="geometry" />
        </mxCell>
        <mxCell id="oQUORiZ7VCNlnRletKll-7" style="edgeStyle=orthogonalEdgeStyle;rounded=0;orthogonalLoop=1;jettySize=auto;html=1;fillColor=#d5e8d4;strokeColor=#82b366;" parent="1" source="oQUORiZ7VCNlnRletKll-3" target="oQUORiZ7VCNlnRletKll-1" edge="1">
          <mxGeometry relative="1" as="geometry">
            <mxPoint x="254" y="1242" as="sourcePoint" />
            <mxPoint x="207" y="1072" as="targetPoint" />
            <Array as="points">
              <mxPoint x="394" y="1236" />
            </Array>
          </mxGeometry>
        </mxCell>
        <mxCell id="Rxi_Dcvzvv8wK8cmiCf9-1" value="marker_array_bouteille" style="ellipse;whiteSpace=wrap;html=1;fillColor=#d5e8d4;strokeColor=#82b366;" vertex="1" parent="1">
          <mxGeometry x="38" y="937" width="120" height="80" as="geometry" />
        </mxCell>
      </root>
    </mxGraphModel>
  </diagram>
</mxfile>
